<?xml version="1.0" standalone="no"?>
<!DOCTYPE svg PUBLIC "-//W3C//DTD SVG 20010904//EN"
 "http://www.w3.org/TR/2001/REC-SVG-20010904/DTD/svg10.dtd">
<svg version="1.0" xmlns="http://www.w3.org/2000/svg"
 width="150.000000pt" height="150.000000pt" viewBox="0 0 150.000000 150.000000"
 preserveAspectRatio="xMidYMid meet">
<metadata>
Created by potrace 1.16, written by Peter Selinger 2001-2019
</metadata>
<g transform="translate(0.000000,150.000000) scale(0.100000,-0.100000)"
fill="#000000" stroke="none">
<path d="M259 939 c-27 -29 -29 -36 -29 -115 l0 -84 65 0 65 0 0 -110 0 -110
75 0 c127 0 165 36 165 155 0 58 2 65 20 65 19 0 20 -7 20 -110 l0 -110 79 0
c70 0 83 3 110 25 37 32 54 81 49 145 l-3 50 68 0 67 0 0 115 0 115 -83 0
c-122 0 -157 -35 -157 -160 0 -47 -3 -60 -15 -60 -12 0 -15 19 -15 110 l0 110
-89 0 -89 0 -31 -35 c-29 -33 -31 -41 -31 -110 0 -68 -2 -75 -20 -75 -19 0
-20 7 -20 110 l0 110 -86 0 c-83 0 -87 -1 -115 -31z"/>
</g>
</svg>
